<?xml version="1.0" encoding="UTF-8"?>
<svg id="Layer_1" xmlns="http://www.w3.org/2000/svg" viewBox="0 0 64 64">
  <path d="M62.88082,14.84948c-.93883-7.14594-6.58436-12.79147-13.7303-13.7303-5.61241-.73736-11.33669-1.11918-17.15052-1.11918s-11.5381.38183-17.15052,1.11918C7.70354,2.05801,2.05801,7.70354,1.11918,14.84948c-.73736,5.61241-1.11918,11.33669-1.11918,17.15052s.38183,11.5381,1.11918,17.15052c.93883,7.14594,6.58436,12.79147,13.7303,13.7303,5.61241.73736,11.33669,1.11918,17.15052,1.11918s11.5381-.38183,17.15052-1.11918c7.14594-.93883,12.79147-6.58436,13.7303-13.7303.73736-5.61241,1.11918-11.33669,1.11918-17.15052s-.38183-11.5381-1.11918-17.15052Z"/>
</svg>